<?xml version="1.0" encoding="UTF-8"?>
<svg id="Layer_2" xmlns="http://www.w3.org/2000/svg" viewBox="0 0 763.2 504.38">
  <defs>
    <style>
      .cls-1 {
        fill: #526843;
      }

      .cls-2 {
        fill: #f4b558;
      }

      .cls-3 {
        fill: #ffb699;
      }

      .cls-4 {
        fill: #f4af53;
      }

      .cls-5 {
        font-family: Nunito-Bold, Nunito;
        font-size: 16px;
        font-weight: 700;
      }

      .cls-6 {
        fill: #6d845f;
      }

      .cls-7 {
        fill: #f29f33;
      }

      .cls-8 {
        fill: #48393e;
      }

      .cls-9 {
        fill: #1f2056;
      }

      .cls-10 {
        fill: #98af79;
      }

      .cls-11 {
        fill: #5b6d4d;
      }

      .cls-12 {
        fill: #6c9e51;
      }

      .cls-13 {
        fill: #ffc9ae;
      }

      .cls-14 {
        fill: #fff;
      }

      .cls-15 {
        fill: #34244e;
      }

      .cls-16 {
        fill: #ecf7e4;
      }

      .cls-17 {
        fill: #ef6452;
      }

      .cls-18 {
        fill: #84a075;
      }

      .cls-19 {
        fill: #81aa6a;
      }

      .cls-20 {
        fill: #f7c26d;
      }

      .cls-21 {
        fill: #ffb899;
      }

      .cls-22 {
        fill: #d35046;
      }

      .cls-23 {
        fill: #ddefd3;
      }

      .cls-24 {
        letter-spacing: -.01em;
      }

      .cls-25 {
        fill: #47393d;
      }

      .cls-26 {
        fill: #f2ac6d;
      }
    </style>
  </defs>
  <g id="Layer_1-2" data-name="Layer_1">
    <g>
      <path class="cls-16" d="M93.08,503.06c-27.58-45.15-55.72-91.77-64.23-143.96s7.24-111.94,51.72-140.7c34.91-22.56,79.56-22.12,118.98-35.39,95.56-32.17,149.54-139.99,244.73-173.27,73.42-25.67,159.36,1.37,213.35,57.25,53.98,55.89,78,136.17,75.72,213.74-2.29,77.57-28.84,152.77-64.82,221.59l-575.44.73Z"/>
      <path class="cls-10" d="M103.77,504.38l-.75-.5c-.68-.46-1.36-.92-2.04-1.38l-.52-.36.56-.83.52.36c.68.46,1.36.92,2.04,1.38l.75.5-.56.83ZM709.4,504.32l-.7-.71c.54-.53,1.07-1.07,1.59-1.61l.72.7c-.53.54-1.06,1.09-1.61,1.63ZM97.15,499.88c-1.1-.76-2.2-1.52-3.29-2.29l.57-.82c1.09.76,2.19,1.52,3.28,2.28l-.57.82ZM713.77,499.79l-.73-.68c.91-.97,1.8-1.96,2.69-2.95l.75.67c-.89,1-1.79,1.98-2.7,2.96ZM90.59,495.29c-1.09-.78-2.17-1.55-3.25-2.34l.59-.81c1.08.78,2.16,1.56,3.25,2.33l-.58.81ZM719.11,493.8l-.76-.65c.87-1.01,1.72-2.03,2.56-3.06l.77.63c-.85,1.03-1.7,2.06-2.57,3.08ZM84.11,490.58c-1.07-.8-2.14-1.6-3.21-2.4l.6-.8c1.06.8,2.13,1.6,3.2,2.4l-.6.8ZM724.19,487.6l-.79-.62c.82-1.05,1.63-2.1,2.43-3.17l.8.6c-.8,1.07-1.61,2.13-2.44,3.18ZM77.72,485.73c-1.06-.82-2.11-1.65-3.15-2.48l.62-.78c1.04.83,2.09,1.65,3.14,2.47l-.61.79ZM729,481.18l-.81-.58c.78-1.08,1.54-2.17,2.29-3.27l.83.56c-.75,1.1-1.52,2.2-2.3,3.29ZM71.46,480.73c-1.03-.85-2.06-1.7-3.08-2.57l.65-.76c1.02.86,2.04,1.71,3.07,2.56l-.63.77ZM65.34,475.55c-1.01-.88-2.01-1.77-3-2.66l.67-.74c.99.89,1.98,1.78,2.98,2.65l-.66.75ZM733.52,474.55l-.84-.54c.73-1.12,1.44-2.24,2.14-3.37l.85.53c-.7,1.14-1.42,2.26-2.15,3.39ZM59.39,470.17c-.98-.92-1.94-1.84-2.9-2.77l.7-.72c.95.93,1.91,1.85,2.88,2.76l-.68.73ZM737.75,467.73l-.86-.51c.67-1.15,1.34-2.3,1.99-3.46l.87.49c-.65,1.17-1.32,2.33-2,3.48ZM53.65,464.56c-.94-.95-1.87-1.92-2.78-2.89l.73-.69c.91.97,1.83,1.92,2.77,2.87l-.71.7ZM741.66,460.73l-.88-.47c.62-1.17,1.23-2.36,1.83-3.55l.89.45c-.6,1.2-1.21,2.38-1.83,3.57ZM48.15,458.72c-.9-.99-1.78-2-2.65-3.01l.76-.65c.87,1.01,1.74,2.01,2.63,3l-.74.67ZM745.25,453.56l-.9-.43c.57-1.2,1.12-2.41,1.66-3.63l.91.4c-.54,1.22-1.1,2.44-1.67,3.65ZM42.93,452.63c-.84-1.04-1.68-2.08-2.49-3.14l.79-.61c.81,1.05,1.64,2.09,2.48,3.12l-.78.63ZM38.02,446.28c-.79-1.08-1.56-2.17-2.32-3.27l.82-.57c.75,1.09,1.52,2.18,2.31,3.25l-.81.59ZM748.5,446.22l-.92-.38c.51-1.23,1-2.46,1.48-3.7l.93.36c-.48,1.25-.98,2.49-1.49,3.72ZM33.48,439.66c-.72-1.12-1.43-2.27-2.11-3.42l.86-.51c.67,1.14,1.38,2.28,2.09,3.39l-.84.54ZM751.39,438.74l-.94-.34c.45-1.25.89-2.51,1.31-3.77l.95.32c-.42,1.27-.86,2.53-1.32,3.79ZM29.39,432.75c-.64-1.17-1.27-2.37-1.86-3.56l.89-.45c.59,1.18,1.21,2.37,1.84,3.53l-.88.48ZM753.93,431.13l-.96-.29c.39-1.27.77-2.55,1.13-3.82l.96.27c-.36,1.29-.74,2.57-1.14,3.85ZM25.8,425.56c-.55-1.21-1.09-2.44-1.61-3.68l.92-.38c.51,1.23,1.05,2.45,1.59,3.65l-.91.42ZM756.12,423.41l-.97-.25c.33-1.29.65-2.58.95-3.87l.97.23c-.3,1.3-.62,2.6-.96,3.9ZM22.71,418.14c-.47-1.24-.92-2.52-1.34-3.79l.95-.32c.42,1.26.87,2.52,1.33,3.75l-.94.35ZM757.94,415.6l-.98-.2c.27-1.3.53-2.61.77-3.91l.98.18c-.24,1.31-.5,2.63-.77,3.94ZM20.18,410.52c-.37-1.28-.73-2.59-1.05-3.88l.97-.24c.32,1.28.67,2.57,1.05,3.84l-.96.28ZM759.4,407.71l-.99-.16c.21-1.31.41-2.63.59-3.95l.99.14c-.18,1.32-.38,2.65-.59,3.97ZM18.22,402.73c-.27-1.3-.53-2.63-.75-3.95l.99-.17c.22,1.31.47,2.62.74,3.91l-.98.21ZM760.49,399.76l-.99-.11c.15-1.32.29-2.64.41-3.97l1,.09c-.12,1.33-.26,2.66-.41,3.99ZM16.88,394.8c-.17-1.33-.31-2.68-.42-4l1-.08c.11,1.31.25,2.64.42,3.96l-.99.13ZM761.23,391.77l-1-.07c.09-1.33.17-2.65.23-3.98l1,.05c-.06,1.33-.14,2.67-.23,4ZM16.2,386.79c-.05-1.19-.07-2.39-.07-3.56v-.46s1,0,1,0v.46c0,1.16.02,2.35.07,3.52l-1,.04ZM761.59,383.76l-1-.02c.03-1.33.05-2.66.05-3.99h1c0,1.34-.02,2.67-.05,4.01ZM17.25,378.79l-1-.05c.07-1.34.17-2.69.31-4.01l1,.1c-.13,1.31-.24,2.64-.3,3.96ZM760.6,375.76c-.03-1.33-.08-2.66-.13-3.99l1-.04c.06,1.34.1,2.67.13,4.01l-1,.02ZM18.05,370.89l-.99-.15c.2-1.32.44-2.66.71-3.96l.98.2c-.27,1.29-.5,2.6-.7,3.91ZM760.24,367.79c-.09-1.33-.19-2.65-.31-3.98l1-.09c.12,1.33.23,2.66.32,4l-1,.07ZM19.66,363.11l-.97-.26c.34-1.3.72-2.6,1.13-3.86l.95.31c-.4,1.25-.78,2.53-1.12,3.81ZM759.52,359.85c-.15-1.32-.31-2.64-.49-3.96l.99-.13c.18,1.32.35,2.65.5,3.98l-.99.11ZM22.11,355.56l-.93-.36c.49-1.25,1.01-2.5,1.56-3.71l.91.41c-.54,1.19-1.06,2.42-1.54,3.66ZM758.44,351.95c-.21-1.31-.43-2.62-.67-3.93l.98-.18c.24,1.31.47,2.63.68,3.95l-.99.16ZM25.4,348.34l-.88-.47c.62-1.18,1.29-2.36,1.98-3.5l.86.52c-.68,1.13-1.34,2.29-1.95,3.45ZM757,344.1c-.27-1.3-.55-2.6-.85-3.9l.97-.22c.3,1.3.59,2.61.86,3.92l-.98.2ZM29.5,341.55l-.82-.57c.76-1.1,1.55-2.2,2.36-3.25l.79.61c-.8,1.04-1.58,2.12-2.33,3.21ZM755.21,336.33c-.33-1.29-.67-2.57-1.03-3.85l.96-.27c.36,1.29.71,2.58,1.04,3.88l-.97.25ZM34.34,335.26l-.76-.65c.86-1.01,1.77-2.02,2.7-2.99l.73.69c-.91.96-1.81,1.96-2.66,2.96ZM39.8,329.49l-.69-.72c.95-.91,1.95-1.82,2.97-2.71l.66.75c-1,.87-1.99,1.77-2.93,2.68ZM753.05,328.65c-.39-1.27-.79-2.54-1.21-3.8l.95-.31c.42,1.27.83,2.54,1.22,3.82l-.96.29ZM45.78,324.27l-.62-.78c1.04-.83,2.11-1.65,3.19-2.44l.59.81c-1.07.78-2.13,1.6-3.16,2.41ZM750.54,321.08c-.45-1.25-.91-2.5-1.39-3.74l.93-.36c.48,1.25.95,2.5,1.39,3.76l-.94.34ZM52.2,319.57l-.56-.83c1.09-.73,2.22-1.47,3.37-2.19l.53.85c-1.14.71-2.26,1.44-3.34,2.17ZM58.95,315.34l-.5-.86c1.15-.67,2.32-1.33,3.5-1.97l.48.88c-1.17.64-2.33,1.29-3.47,1.95ZM747.68,313.63c-.51-1.23-1.03-2.45-1.56-3.67l.92-.4c.54,1.23,1.06,2.46,1.57,3.69l-.92.38ZM65.95,311.53l-.46-.89c1.19-.61,2.38-1.2,3.59-1.78l.43.9c-1.2.58-2.39,1.17-3.57,1.77ZM73.13,308.06l-.42-.91c1.21-.55,2.43-1.1,3.66-1.63l.4.92c-1.22.53-2.44,1.08-3.64,1.63ZM744.47,306.33c-.56-1.2-1.14-2.4-1.73-3.6l.9-.44c.59,1.2,1.17,2.41,1.74,3.62l-.91.42ZM80.45,304.87l-.39-.92c1.23-.51,2.47-1.02,3.71-1.52l.37.93c-1.24.5-2.47,1-3.7,1.51ZM87.86,301.88l-.36-.93c1.24-.48,2.48-.96,3.73-1.43l.35.94c-1.24.47-2.49.95-3.72,1.43ZM740.94,299.16c-.61-1.18-1.24-2.36-1.87-3.53l.88-.48c.64,1.18,1.27,2.36,1.88,3.55l-.89.46ZM95.32,299.05l-.35-.94c1.25-.46,2.5-.92,3.75-1.38l.34.94c-1.25.46-2.5.92-3.75,1.38ZM102.82,296.31l-.34-.94,3.76-1.36.34.94-3.76,1.36ZM110.34,293.6l-.34-.94,3.76-1.36.34.94-3.76,1.36ZM737.14,292.13c-.65-1.16-1.32-2.32-1.99-3.47l.86-.5c.68,1.16,1.34,2.32,2,3.48l-.87.49ZM117.87,290.86l-.35-.94c1.25-.46,2.5-.93,3.75-1.39l.35.94c-1.25.47-2.5.93-3.76,1.39ZM125.37,288.04l-.36-.93c1.25-.48,2.49-.96,3.73-1.45l.37.93c-1.24.49-2.49.98-3.74,1.46ZM733.11,285.22c-.69-1.14-1.38-2.28-2.09-3.41l.85-.53c.71,1.14,1.4,2.28,2.09,3.42l-.86.52ZM132.84,285.09l-.38-.93c1.24-.51,2.47-1.02,3.7-1.54l.39.92c-1.23.52-2.47,1.04-3.71,1.55ZM140.23,281.94l-.41-.91c1.22-.54,2.43-1.09,3.63-1.66l.42.91c-1.21.56-2.43,1.12-3.65,1.66ZM147.5,278.54l-.44-.9c1.2-.59,2.38-1.19,3.56-1.8l.46.89c-1.18.62-2.38,1.22-3.58,1.81ZM728.89,278.42c-.71-1.12-1.44-2.25-2.16-3.37l.84-.54c.73,1.12,1.45,2.25,2.17,3.38l-.84.54ZM154.61,274.83l-.48-.88c1.17-.65,2.32-1.3,3.47-1.98l.51.86c-1.15.68-2.31,1.34-3.49,1.99ZM724.54,271.7c-.73-1.11-1.47-2.22-2.22-3.33l.83-.56c.75,1.11,1.49,2.22,2.22,3.34l-.83.55ZM161.53,270.74l-.54-.84c1.14-.73,2.25-1.48,3.3-2.22l.58.82c-1.06.75-2.18,1.51-3.34,2.25ZM168.09,266.08l-.62-.78c1.06-.84,2.08-1.71,3.03-2.57l.67.74c-.96.87-2,1.75-3.08,2.61ZM720.08,265.06c-.75-1.1-1.5-2.2-2.26-3.3l.82-.57c.76,1.1,1.51,2.2,2.26,3.31l-.83.56ZM195.67,263.97h-.37v-1h.37c1.2,0,2.41-.02,3.61-.06l.04,1c-1.22.04-2.43.06-3.65.06ZM191.28,263.88c-1.34-.06-2.69-.14-4.01-.25l.08-1c1.31.11,2.65.19,3.97.25l-.04,1ZM203.34,263.7l-.07-1c1.31-.09,2.64-.21,3.97-.36l.11.99c-1.33.14-2.68.27-4,.36ZM183.27,263.22c-.73-.09-1.46-.19-2.19-.29-.59-.08-1.19-.17-1.79-.27l.16-.99c.59.1,1.18.19,1.77.27.72.1,1.45.2,2.17.29l-.12.99ZM211.32,262.83l-.14-.99c1.3-.19,2.62-.4,3.93-.64l.18.98c-1.32.24-2.65.45-3.96.64ZM175.34,261.89c-.77-.17-1.54-.36-2.3-.56l-.83-.22h0c-1.3-.37-2.56-.76-3.76-1.19l.34-.94c1.2.43,2.47.83,3.78,1.19l-.22.79.45-.47c.38-.39.76-.79,1.12-1.19l.74.67c-.18.2-.37.4-.55.6.48.12.96.23,1.44.34l-.22.98ZM219.23,261.41l-.21-.98c1.3-.28,2.59-.58,3.88-.9l.24.97c-1.3.32-2.6.63-3.91.91ZM227.01,259.46l-.27-.96c1.28-.36,2.55-.75,3.81-1.15l.3.95c-1.28.41-2.56.79-3.84,1.16ZM715.55,258.46c-.76-1.1-1.52-2.19-2.28-3.29l.82-.57c.76,1.09,1.52,2.19,2.28,3.29l-.82.57ZM164.71,258.4c-1.26-.58-2.47-1.2-3.59-1.87l.51-.86c1.1.65,2.28,1.26,3.5,1.82l-.42.91ZM234.66,257.03l-.33-.94c1.25-.44,2.5-.9,3.74-1.38l.36.93c-1.25.48-2.5.94-3.76,1.39ZM177.26,256.87l-.8-.6c.81-1.08,1.54-2.18,2.19-3.28l.86.51c-.66,1.13-1.42,2.26-2.25,3.37ZM157.75,254.27c-1.1-.84-2.12-1.75-3.05-2.69l.71-.7c.89.91,1.88,1.79,2.94,2.6l-.61.79ZM242.15,254.15l-.39-.92c1.22-.51,2.44-1.04,3.65-1.59l.41.91c-1.22.55-2.45,1.08-3.68,1.6ZM710.98,251.89l-2.29-3.28.82-.57,2.29,3.28-.82.57ZM249.46,250.85l-.44-.9c1.19-.58,2.38-1.17,3.56-1.78l.46.89c-1.19.61-2.38,1.21-3.59,1.8ZM181.33,249.86l-.92-.39c.51-1.23.93-2.48,1.24-3.72l.97.24c-.32,1.29-.75,2.59-1.29,3.86ZM152.09,248.45c-.77-1.11-1.43-2.32-1.96-3.6l.92-.38c.5,1.22,1.13,2.37,1.86,3.41l-.82.57ZM256.59,247.16l-.48-.88c1.16-.64,2.32-1.3,3.47-1.97l.5.86c-1.16.67-2.32,1.33-3.49,1.98ZM706.41,245.33l-2.28-3.29.82-.57,2.28,3.29-.82.57ZM263.52,243.12l-.52-.85c1.13-.7,2.25-1.41,3.37-2.13l.54.84c-1.12.73-2.25,1.45-3.39,2.15ZM183.27,241.97l-1-.07c.03-.36.04-.73.04-1.09,0-.91-.08-1.85-.24-2.78l.99-.17c.17.99.25,1.98.25,2.94,0,.39-.01.77-.04,1.16ZM148.96,240.92c-.26-1.32-.39-2.67-.39-4.02l1-.06c0,1.34.12,2.62.37,3.88l-.98.19ZM270.24,238.75l-.57-.83c1.1-.75,2.19-1.52,3.27-2.29l.58.81c-1.09.78-2.18,1.55-3.28,2.31ZM701.87,238.75c-.75-1.1-1.5-2.2-2.25-3.3l.83-.56c.75,1.1,1.5,2.2,2.25,3.3l-.83.56ZM181.03,234.29c-.47-1.19-1.06-2.37-1.75-3.49l.85-.53c.73,1.17,1.35,2.4,1.83,3.65l-.93.36ZM276.76,234.06l-.6-.8c1.06-.8,2.12-1.62,3.16-2.44l.62.78c-1.05.83-2.11,1.65-3.18,2.46ZM149.97,232.98l-.98-.21c.29-1.37.72-2.68,1.28-3.9l.91.42c-.53,1.15-.94,2.39-1.21,3.69ZM697.39,232.12c-.74-1.11-1.48-2.22-2.21-3.33l.84-.55c.73,1.11,1.46,2.22,2.2,3.33l-.83.55ZM283.06,229.07l-.64-.77c1.03-.85,2.04-1.71,3.05-2.58l.66.76c-1.01.88-2.03,1.74-3.06,2.6ZM176.93,227.67c-.88-.98-1.84-1.88-2.85-2.67l.62-.79c1.06.83,2.06,1.77,2.98,2.79l-.75.67ZM153.23,226.03l-.77-.64c.89-1.07,1.92-2,3.06-2.77l.56.83c-1.06.71-2.02,1.58-2.85,2.58ZM693,225.44c-.72-1.12-1.44-2.25-2.14-3.37l.85-.53c.71,1.12,1.42,2.24,2.14,3.36l-.84.54ZM289.13,223.81l-.67-.74c.99-.9,1.97-1.8,2.93-2.72l.69.73c-.97.92-1.95,1.83-2.95,2.73ZM170.8,222.9c-1.19-.6-2.41-1.05-3.63-1.35l.24-.97c1.3.32,2.59.8,3.85,1.43l-.45.89ZM159.54,221.77l-.31-.95c1.32-.42,2.69-.66,4.07-.69l.03,1c-1.29.03-2.56.25-3.79.65ZM688.75,218.67c-.7-1.14-1.38-2.28-2.06-3.42l.86-.51c.68,1.14,1.36,2.28,2.06,3.41l-.85.52ZM294.96,218.29l-.7-.71c.59-.59,1.18-1.17,1.76-1.76.35-.36.7-.72,1.05-1.08l.72.7c-.35.36-.7.72-1.05,1.08-.58.59-1.17,1.19-1.77,1.77ZM300.55,212.52l-.73-.68c.91-.97,1.81-1.95,2.7-2.94l.74.67c-.9.99-1.8,1.98-2.71,2.95ZM684.68,211.8c-.66-1.16-1.32-2.32-1.96-3.48l.87-.48c.64,1.16,1.29,2.32,1.95,3.47l-.87.5ZM305.93,206.57l-.75-.66c.88-1,1.74-2.01,2.6-3.03l.76.65c-.86,1.02-1.73,2.03-2.61,3.04ZM680.81,204.8c-.62-1.18-1.24-2.36-1.83-3.55l.89-.45c.6,1.18,1.2,2.36,1.83,3.54l-.88.47ZM311.11,200.45l-.77-.63c.85-1.03,1.68-2.06,2.51-3.1l.78.62c-.83,1.04-1.67,2.08-2.52,3.11ZM677.22,197.66c-.58-1.21-1.14-2.42-1.68-3.63l.91-.41c.54,1.21,1.1,2.41,1.67,3.61l-.9.43ZM316.11,194.19l-.79-.61c.82-1.05,1.63-2.11,2.43-3.17l.8.6c-.81,1.06-1.62,2.12-2.44,3.18ZM673.94,190.36c-.52-1.23-1.02-2.47-1.5-3.71l.93-.36c.48,1.23.98,2.46,1.49,3.69l-.92.39ZM320.94,187.8l-.8-.59c.79-1.07,1.58-2.15,2.35-3.23l.81.58c-.78,1.08-1.57,2.16-2.36,3.24ZM671.03,182.89c-.45-1.26-.88-2.52-1.3-3.79l.95-.31c.41,1.26.84,2.52,1.29,3.77l-.94.34ZM325.63,181.31l-.82-.58c.77-1.09,1.53-2.18,2.29-3.27l.82.57c-.76,1.1-1.52,2.19-2.29,3.28ZM668.55,175.26c-.38-1.28-.73-2.58-1.06-3.87l.97-.25c.33,1.29.68,2.57,1.05,3.84l-.96.28ZM330.19,174.72l-.83-.56c.75-1.1,1.49-2.21,2.23-3.31l.83.56c-.74,1.11-1.49,2.22-2.24,3.32ZM334.64,168.07l-.83-.55c.73-1.11,1.46-2.23,2.19-3.34l.84.55c-.73,1.12-1.46,2.23-2.19,3.35ZM666.56,167.48c-.29-1.32-.56-2.65-.8-3.94l.98-.18c.24,1.29.5,2.6.79,3.91l-.98.22ZM665.4,162.2v-.7c-.18-1.05-.34-2.1-.49-3.16l.99-.14c.16,1.14.33,2.27.52,3.4l.1.58h-1.13ZM668.19,162.13l-.05-1c1.32-.06,2.65-.16,3.96-.3l.11.99c-1.33.14-2.68.25-4.02.31ZM661.37,162.1c-1.33-.07-2.68-.18-4.01-.33l.11-.99c1.31.15,2.64.26,3.96.33l-.05,1ZM339.01,161.36l-.84-.54c.72-1.12,1.44-2.24,2.15-3.37l.84.54c-.72,1.12-1.44,2.25-2.16,3.37ZM676.2,161.26l-.17-.99c1.3-.22,2.61-.49,3.89-.79l.23.97c-1.3.31-2.63.58-3.95.8ZM653.37,161.2c-1.32-.23-2.65-.5-3.95-.8l.23-.97c1.28.3,2.59.57,3.89.79l-.17.99ZM684.04,159.41l-.29-.96c1.26-.39,2.52-.82,3.75-1.29l.36.93c-1.25.48-2.53.92-3.81,1.31ZM645.53,159.36c-1.29-.38-2.57-.81-3.82-1.27l.34-.94c1.23.45,2.5.87,3.77,1.25l-.29.96ZM637.97,156.59c-1.23-.54-2.45-1.13-3.63-1.74l.46-.89c1.16.61,2.37,1.18,3.57,1.72l-.4.91ZM691.57,156.54l-.42-.91c1.2-.56,2.39-1.16,3.53-1.79l.48.88c-1.16.64-2.37,1.26-3.6,1.83ZM343.31,154.61l-.85-.53c.71-1.13,1.42-2.25,2.13-3.38l.85.53c-.71,1.13-1.42,2.26-2.13,3.39ZM664.45,154.35c-.12-1.35-.21-2.71-.27-4.02l1-.04c.05,1.29.14,2.63.26,3.96l-1,.09ZM630.82,152.86c-1.15-.7-2.28-1.45-3.37-2.22l.58-.82c1.06.76,2.18,1.49,3.31,2.18l-.52.85ZM698.61,152.57l-.57-.82c1.07-.75,2.12-1.56,3.12-2.42l.65.76c-1.03.88-2.1,1.72-3.2,2.48ZM624.25,148.19c-.93-.77-1.84-1.57-2.71-2.4l-.3-.29.7-.72.3.29c.85.81,1.75,1.6,2.66,2.35l-.64.77ZM347.56,147.83l-.85-.53,2.12-3.39.85.53-2.12,3.39ZM704.74,147.3l-.72-.69c.91-.96,1.78-1.97,2.57-3l.79.61c-.81,1.06-1.7,2.09-2.63,3.08ZM665.14,146.32l-1-.02c.03-1.37.1-2.72.22-4.03l1,.09c-.11,1.28-.19,2.62-.21,3.96ZM618.43,142.61c-.89-.98-1.77-2.01-2.62-3.06l.78-.63c.83,1.04,1.7,2.05,2.58,3.01l-.74.67ZM351.8,141.04l-.85-.53,2.12-3.4.85.53-2.12,3.39ZM709.66,140.87l-.86-.51c.69-1.15,1.29-2.33,1.79-3.5l.92.39c-.51,1.21-1.14,2.43-1.85,3.62ZM665.86,138.43l-.99-.17c.23-1.35.51-2.68.84-3.95l.97.25c-.33,1.24-.6,2.54-.82,3.87ZM613.39,136.34c-.76-1.08-1.51-2.2-2.23-3.34l.85-.53c.71,1.13,1.45,2.24,2.2,3.3l-.82.58ZM356.03,134.26l-.85-.53,2.13-3.39.85.53-2.12,3.39ZM712.8,133.38l-.97-.24c.32-1.3.51-2.6.56-3.85l1,.04c-.05,1.32-.25,2.68-.59,4.05ZM667.87,130.8l-.94-.35c.48-1.28,1.03-2.53,1.63-3.71l.89.45c-.58,1.15-1.12,2.36-1.58,3.61ZM609.1,129.54c-.64-1.13-1.27-2.33-1.88-3.55l.89-.45c.61,1.21,1.23,2.39,1.86,3.51l-.87.49ZM360.29,127.48l-.84-.53c.71-1.13,1.43-2.25,2.15-3.38l.84.54c-.72,1.12-1.43,2.25-2.14,3.38ZM712.1,125.43c-.25-1.27-.66-2.5-1.22-3.67l.9-.43c.59,1.24,1.03,2.55,1.3,3.9l-.98.19ZM671.45,123.81l-.83-.56c.76-1.12,1.6-2.2,2.49-3.21l.75.66c-.86.97-1.67,2.01-2.41,3.1ZM605.49,122.35c-.53-1.17-1.07-2.41-1.6-3.69l.92-.38c.52,1.27,1.06,2.5,1.58,3.66l-.91.41ZM364.59,120.74l-.84-.54c.72-1.12,1.45-2.24,2.18-3.36l.84.55c-.73,1.12-1.45,2.23-2.17,3.36ZM708.81,118.5c-.81-.99-1.76-1.88-2.81-2.65l.59-.81c1.12.82,2.12,1.77,2.99,2.82l-.77.64ZM676.69,118l-.62-.78c1.04-.83,2.17-1.6,3.38-2.28l.49.87c-1.16.66-2.25,1.39-3.25,2.19ZM602.42,114.92c-.47-1.25-.93-2.51-1.38-3.77l.94-.33c.44,1.26.9,2.51,1.37,3.75l-.94.36ZM683.48,114.13l-.36-.93c1.26-.49,2.56-.9,3.88-1.21l.23.97c-1.27.3-2.54.7-3.75,1.17ZM368.96,114.05l-.83-.55c.73-1.11,1.47-2.22,2.22-3.33l.83.56c-.74,1.11-1.48,2.21-2.21,3.32ZM702.62,113.93c-1.16-.5-2.41-.9-3.71-1.19l.21-.98c1.37.3,2.68.72,3.9,1.25l-.4.92ZM691.11,112.32l-.1-1c1.36-.13,2.73-.16,4.07-.09l-.05,1c-1.29-.07-2.61-.03-3.92.09ZM373.41,107.42l-.83-.57c.75-1.1,1.51-2.2,2.28-3.29l.82.57c-.76,1.09-1.52,2.19-2.27,3.28ZM599.73,107.35c-.42-1.27-.83-2.54-1.24-3.82l.95-.3c.41,1.27.82,2.54,1.24,3.8l-.95.32ZM377.98,100.88l-.81-.58c.77-1.09,1.55-2.17,2.34-3.25l.81.59c-.78,1.08-1.56,2.16-2.33,3.24ZM597.29,99.71c-.4-1.27-.79-2.55-1.18-3.83l.96-.29c.39,1.28.78,2.55,1.18,3.82l-.96.3ZM382.69,94.42l-.8-.6c.8-1.07,1.6-2.14,2.41-3.2l.79.61c-.81,1.06-1.61,2.12-2.41,3.19ZM594.94,92.06c-.39-1.27-.79-2.55-1.19-3.82l.96-.3c.4,1.27.79,2.55,1.19,3.82l-.96.29ZM387.54,88.08l-.79-.62c.82-1.05,1.66-2.1,2.49-3.14l.78.63c-.84,1.04-1.66,2.08-2.48,3.13ZM592.54,84.43c-.41-1.27-.83-2.53-1.26-3.79l.95-.32c.43,1.26.85,2.53,1.27,3.8l-.95.31ZM392.55,81.86l-.77-.64c.85-1.03,1.71-2.05,2.58-3.07l.76.65c-.86,1.01-1.72,2.03-2.57,3.06ZM589.95,76.89c-.46-1.25-.92-2.49-1.41-3.73l.93-.37c.49,1.24.96,2.49,1.42,3.75l-.94.34ZM397.73,75.79l-.75-.66c.88-1,1.77-2,2.67-2.99l.74.67c-.89.98-1.78,1.98-2.66,2.98ZM403.1,69.88l-.73-.68c.92-.98,1.84-1.94,2.77-2.9l.72.7c-.93.95-1.85,1.92-2.76,2.89ZM587.04,69.48c-.53-1.24-1.08-2.46-1.63-3.63l.9-.43c.55,1.18,1.11,2.41,1.64,3.66l-.92.39ZM408.67,64.15l-.7-.71c.95-.94,1.91-1.87,2.87-2.8l.69.72c-.96.92-1.92,1.85-2.86,2.78ZM583.65,62.28c-.62-1.19-1.26-2.36-1.91-3.49l.87-.5c.66,1.13,1.31,2.32,1.93,3.53l-.89.46ZM414.45,58.64l-.68-.74c.99-.9,1.98-1.8,2.98-2.68l.66.75c-1,.88-1.99,1.77-2.97,2.67ZM579.66,55.4c-.72-1.12-1.48-2.22-2.25-3.28l.81-.59c.78,1.07,1.55,2.19,2.28,3.32l-.84.54ZM420.44,53.37l-.64-.76c1.02-.86,2.05-1.71,3.1-2.55l.63.78c-1.04.83-2.06,1.68-3.08,2.54ZM574.98,48.98c-.83-1.02-1.71-2.02-2.61-2.99l.73-.68c.91.98,1.8,2,2.65,3.03l-.77.63ZM426.65,48.37l-.61-.79c1.06-.81,2.13-1.62,3.21-2.41l.59.81c-1.07.79-2.14,1.58-3.19,2.39ZM433.09,43.66l-.57-.82c1.1-.76,2.2-1.51,3.32-2.25l.55.84c-1.11.73-2.21,1.47-3.3,2.23ZM569.6,43.16c-.95-.91-1.93-1.81-2.94-2.67l.65-.76c1.02.87,2.02,1.79,2.98,2.71l-.69.72ZM439.74,39.29l-.53-.85c1.13-.7,2.28-1.39,3.43-2.07l.5.86c-1.15.67-2.28,1.36-3.41,2.06ZM563.58,37.98c-1.04-.8-2.12-1.59-3.21-2.34l.57-.82c1.1.76,2.2,1.55,3.26,2.37l-.61.79ZM446.61,35.27l-.48-.88c1.17-.64,2.35-1.27,3.54-1.88l.46.89c-1.18.61-2.35,1.23-3.51,1.87ZM557.03,33.48c-1.12-.69-2.28-1.36-3.44-1.99l.48-.88c1.17.64,2.34,1.32,3.48,2.02l-.52.85ZM453.69,31.63l-.43-.9c1.2-.58,2.41-1.13,3.64-1.68l.41.91c-1.21.54-2.42,1.1-3.61,1.67ZM550.06,29.67c-1.19-.58-2.41-1.13-3.62-1.66l.4-.92c1.23.53,2.46,1.09,3.66,1.68l-.44.9ZM460.96,28.4l-.38-.93c1.23-.5,2.49-.99,3.75-1.44l.34.94c-1.25.45-2.5.94-3.71,1.43ZM542.75,26.52c-1.23-.47-2.5-.92-3.75-1.33l.31-.95c1.27.42,2.55.87,3.79,1.35l-.35.94ZM468.44,25.68l-.31-.95c1.26-.41,2.55-.8,3.84-1.17l.28.96c-1.28.37-2.56.76-3.81,1.16ZM535.19,24.01c-1.27-.36-2.57-.71-3.85-1.02l.24-.97c1.3.32,2.6.66,3.89,1.03l-.28.96ZM476.1,23.48l-.24-.97c1.3-.32,2.6-.63,3.91-.91l.21.98c-1.3.28-2.59.58-3.88.9ZM527.45,22.13c-1.29-.26-2.61-.5-3.92-.72l.16-.99c1.32.22,2.65.46,3.96.73l-.2.98ZM483.89,21.82l-.18-.98c1.3-.23,2.64-.45,3.96-.64l.14.99c-1.32.19-2.63.4-3.93.64ZM519.59,20.83c-1.3-.17-2.64-.31-3.96-.43l.09-1c1.34.12,2.68.27,4,.44l-.13.99ZM491.77,20.67l-.11-.99c1.33-.15,2.66-.28,4-.38l.08,1c-1.32.1-2.65.23-3.97.38ZM511.66,20.11c-1.31-.07-2.65-.13-3.98-.15l.02-1c1.34.03,2.69.08,4.02.16l-.06,1ZM499.71,20.05l-.04-1c1.34-.06,2.68-.1,4.02-.11v1c-1.32.02-2.64.05-3.97.11Z"/>
      <g>
        <g>
          <path class="cls-19" d="M193.19,414.96c1.03.95,2.03,1.89,3.02,2.81,3.81,3.55,7.31,6.86,10.12,9.83,25.41,26.83,34.76,75.01,34.76,75.01h14.95s-.69-6.41-2.69-16.66c-3.47-17.79-10.89-47.08-25.52-74.66-.54-1.03-1.1-2.05-1.66-3.07-7.5-13.56-16.79-26.59-28.27-37.47-1.12-1.06-2.69-2.25-4.58-3.43-.56-.35-1.15-.7-1.77-1.05-8.67-4.89-21.91-8.73-27.6-.41-.09.13-.18.27-.27.41-8.26,13.27,12.44,32.82,29.5,48.69Z"/>
          <path class="cls-19" d="M187.32,308.14c.23.59.47,1.18.73,1.79,4.3,10.31,11.78,23.09,23.27,38.72,12.18,16.54,25.15,48.42,33.74,85.89,0,.02,0,.04.01.06.35,1.54.7,3.09,1.03,4.64.02.09.04.18.06.27,3.21,14.87,5.71,30.54,7.19,46.41.48,5.12.84,10.24,1.1,15.36.02.43.05.88.06,1.33l22.71-.11c1.55-26.76-.9-122.44-22.28-174.23-.25-.61-.51-1.22-.77-1.82-1.07-2.46-2.19-4.8-3.37-7.03-29.78-56.02-54.18-48.46-61.68-42.44-.25.2-.48.4-.7.6-.02.02-.04.04-.06.06-5.74,5.33-7.12,15-1.04,30.5Z"/>
          <path class="cls-19" d="M200.19,483.2c5.16,7.59,10.93,14.6,15.14,19.42h23.91c-.12-.28-18.41-63.39-44.36-58.63-12.65,2.32-4.72,24.45,5.31,39.21Z"/>
        </g>
        <path class="cls-25" d="M188.36,277.64c12.85,10.46,23.51,23,32.35,36.76.2.32.41.63.61.95,26.09,41.15,36.11,93.01,39.71,133.33.03.34.06.67.09,1.01,1.99,22.77,1.93,41.76,1.59,52.91h.44s.55.03.55.03c.49-16.47.55-59.62-9.45-105.23-3.14-14.31-7.02-27.78-11.61-40.27-.12-.34-.25-.68-.37-1.02-3.22-8.68-6.79-16.89-10.68-24.59-11.35-22.45-25.64-40.8-42.47-54.54-.25.2-.48.4-.7.6-.02.02-.04.04-.06.06Z"/>
        <path class="cls-25" d="M193.04,444.52c4.68,3.55,9.31,9.04,13.67,15.4.2.3.41.59.61.89,6.03,8.95,11.53,19.53,15.94,28.95.15.31.29.61.43.92,2.02,4.34,3.8,8.41,5.29,11.93.03.06.05.13.08.19l.46-.19.46-.19c-3.83-9.1-9.65-21.91-16.49-33.62-.25-.43-.5-.85-.75-1.27-5.7-9.56-12.06-18.26-18.55-23.39-.4.1-.78.23-1.13.38Z"/>
        <path class="cls-25" d="M247.48,502.73l.96-.23c-9.05-37.64-20.87-68.26-35.12-91.01-13.9-22.19-30.54-37.56-49.44-45.66l-.39.91c37.94,16.27,66.2,62.03,83.99,136Z"/>
      </g>
      <path class="cls-16" d="M247.44,107.5c5.43-9.46,6.65-22.02.51-31.03-7.42-10.89-22.55-13.24-35.67-11.97-25.27,2.43-48.62,14.35-70.18,27.76-17.33,10.78-36.94,26.03-34.73,48.95,1.61,16.75,12.64,22.81,28.35,22.31,34.93-1.1,93.89-24.93,111.73-56.02Z"/>
      <path class="cls-11" d="M502.27,53.44v437.5c0,6.11-4.68,11.06-10.48,11.06h-203.72c-5.79,0-10.48-4.96-10.48-11.06V53.44c0-6.12,4.69-11.06,10.48-11.06h203.72c5.8,0,10.48,4.94,10.48,11.06Z"/>
      <g>
        <path class="cls-14" d="M268.86,205.88v285.05c0,6.11,4.69,11.07,10.48,11.07h203.72c5.8,0,10.48-4.96,10.48-11.07V53.44c0-6.13-4.68-11.07-10.48-11.07h-203.72c-5.79,0-10.48,4.94-10.48,11.07v152.44Z"/>
        <path class="cls-8" d="M483.06,502.74h-203.72c-6.18,0-11.21-5.29-11.21-11.8V205.88h1.45v285.05c0,5.7,4.38,10.33,9.76,10.33h203.72c5.38,0,9.76-4.64,9.76-10.33V53.44c0-5.7-4.38-10.33-9.76-10.33h-203.72c-5.38,0-9.76,4.64-9.76,10.33v106.89h-1.45V53.44c0-6.51,5.03-11.8,11.21-11.8h203.72c6.18,0,11.21,5.3,11.21,11.8v437.49c0,6.51-5.03,11.8-11.21,11.8Z"/>
      </g>
      <path class="cls-23" d="M482.35,84.94v374.5c0,7.63-5.3,13.81-11.84,13.81h-178.64c-6.54,0-11.84-6.19-11.84-13.81V84.94c0-7.63,5.3-13.81,11.84-13.81h178.64c6.54,0,11.84,6.19,11.84,13.81Z"/>
      <rect class="cls-14" x="298.3" y="149.07" width="165.79" height="167.63" rx="9.81" ry="9.81"/>
      <rect class="cls-14" x="330.02" y="360.75" width="102.35" height="34.56" rx="11.73" ry="11.73"/>
      <g>
        <polygon class="cls-12" points="431.76 209.53 431.76 225.27 426.39 225.27 426.39 209.34 421.04 209.34 421.04 198.6 431.61 198.6 431.61 203.9 452.89 203.93 452.89 235.71 447.58 235.71 447.58 241.57 452.89 241.57 452.89 267.18 436.85 267.19 436.85 261.62 442.33 261.62 442.32 256.45 447.58 256.45 447.58 246.97 442.29 246.97 442.28 235.68 447.58 235.68 447.58 230.49 437.07 230.49 437.05 241.57 431.76 241.57 431.76 246.54 431.74 246.54 431.74 246.56 426.46 246.55 426.44 235.82 426.45 235.82 426.45 235.81 431.74 235.81 431.76 225.27 447.58 225.27 447.58 209.55 431.76 209.53 431.76 209.53"/>
        <g>
          <g>
            <path class="cls-12" d="M309.64,161.36v32.31h32.2v-32.31h-32.2ZM336.47,188.04h-21.46v-21.32h21.46v21.32Z"/>
            <rect class="cls-12" x="320.36" y="172.11" width="10.74" height="10.61"/>
          </g>
          <g>
            <path class="cls-12" d="M309.64,272.55v32.06h32.2v-32.06h-32.2ZM336.47,299.24h-21.46v-21.32h21.46v21.32Z"/>
            <rect class="cls-12" x="320.36" y="283.3" width="10.74" height="10.61"/>
          </g>
          <g>
            <path class="cls-12" d="M420.69,161.36v32.06h32.2v-32.06h-32.2ZM447.52,188.04h-21.46v-21.32h21.46v21.32Z"/>
            <rect class="cls-12" x="431.41" y="172.11" width="10.74" height="10.61"/>
          </g>
        </g>
        <rect class="cls-12" x="314.48" y="222.68" width="0" height=".04"/>
        <rect class="cls-12" x="314.48" y="222.68" width="0" height=".04"/>
        <rect class="cls-12" x="314.81" y="222.68" width="0" height=".04"/>
        <rect class="cls-12" x="314.81" y="222.68" width="0" height=".04"/>
        <rect class="cls-12" x="315.08" y="222.62" width="0" height=".04"/>
        <rect class="cls-12" x="315.08" y="222.62" width="0" height=".04"/>
        <rect class="cls-12" x="315.41" y="222.62" width="0" height=".04"/>
        <rect class="cls-12" x="315.41" y="222.62" width="0" height=".04"/>
        <rect class="cls-12" x="341.85" y="198.75" width="5.63" height="5.3"/>
        <rect class="cls-12" x="400.68" y="184.61" width="5.63" height="5.3"/>
        <rect class="cls-12" x="358.12" y="214.73" width="5.37" height="5.3"/>
        <rect class="cls-12" x="437.01" y="214.99" width="5.37" height="5.3"/>
        <rect class="cls-12" x="347.51" y="272.63" width="5.37" height="5.31"/>
        <polygon class="cls-12" points="358.18 257.26 358.18 283.24 363.46 283.24 363.46 293.98 358.18 293.98 358.18 299.29 352.88 299.29 352.88 277.93 352.88 277.93 352.88 272.63 352.88 272.63 352.88 257.24 331.16 257.16 331.16 261.89 331.16 261.89 331.16 261.91 331.16 261.91 331.16 261.89 336.52 261.89 336.52 267.19 325.85 267.19 325.85 261.91 315.11 261.91 315.11 256.6 320.48 256.6 320.48 251.83 325.79 251.83 325.79 241.54 331.16 241.54 331.16 251.86 347.79 251.86 347.79 246.78 353.16 246.78 353.16 251.86 358.29 251.86 358.29 246.8 363.59 246.8 363.59 257.28 358.18 257.26"/>
        <rect class="cls-12" x="331.16" y="261.89" width="0" height=".02"/>
        <rect class="cls-12" x="309.7" y="261.86" width="5.37" height="5.3"/>
        <polygon class="cls-12" points="368.81 188.04 368.81 193.7 363.47 193.68 363.44 193.68 363.44 188.04 368.81 188.04"/>
        <rect class="cls-12" x="325.86" y="209.34" width="5.37" height="5.3"/>
        <rect class="cls-12" x="315.23" y="198.78" width="10.63" height="10.57"/>
        <rect class="cls-12" x="363.44" y="193.68" width=".04" height="0"/>
        <rect class="cls-12" x="353.01" y="204.03" width="15.96" height="5.37"/>
        <polygon class="cls-12" points="358.1 198.75 353 198.75 353 182.81 363.45 182.81 363.45 188.04 358.11 188.04 358.11 193.68 363.44 193.68 363.44 193.68 363.47 193.68 363.47 203.98 358.1 203.98 358.1 198.75"/>
        <polygon class="cls-12" points="426.38 214.7 426.38 220.07 421.1 220.07 421.1 225.2 411.64 225.2 411.64 236.21 417 236.21 417 241.58 400.93 241.58 400.93 236.17 406.27 236.17 406.27 230.54 400.9 230.54 400.9 220.23 406.24 220.23 406.24 214.72 411.61 214.72 411.61 220.06 416.87 220.06 416.87 214.72 416.89 214.72 416.89 214.7 426.38 214.7"/>
        <rect class="cls-12" x="384.64" y="283.77" width="5.3" height="5.37"/>
        <rect class="cls-12" x="331.16" y="261.89" width="0" height=".02"/>
        <rect class="cls-12" x="421.15" y="225.27" width="5.3" height="10.55"/>
        <g>
          <polygon class="cls-12" points="416.91 209.35 416.91 214.7 416.89 214.7 416.89 214.72 411.61 214.72 411.61 209.35 416.91 209.35"/>
          <rect class="cls-12" x="416.87" y="214.7" width=".02" height=".02"/>
          <rect class="cls-12" x="416.87" y="214.7" width=".02" height=".02"/>
        </g>
        <rect class="cls-12" x="431.74" y="246.54" width="5.3" height="5.37"/>
        <rect class="cls-12" x="426.44" y="235.81" width=".01" height=".01"/>
        <rect class="cls-12" x="431.74" y="246.54" width=".03" height=".02"/>
        <rect class="cls-12" x="421.17" y="251.92" width="10.57" height="10.74"/>
        <rect class="cls-12" x="379.37" y="172.13" width="5.37" height="5.3"/>
        <rect class="cls-12" x="363.44" y="177.48" width="5.37" height="5.3"/>
        <rect class="cls-12" x="347.34" y="177.48" width="5.63" height="5.3"/>
        <rect class="cls-12" x="368.83" y="167.79" width="5.3" height="9.64"/>
        <polygon class="cls-12" points="395.47 161.16 395.47 166.47 390.03 166.47 390.03 172.17 384.73 172.17 384.73 161.16 395.47 161.16"/>
        <g>
          <rect class="cls-12" x="363.46" y="293.99" width="5.37" height="5.3"/>
          <rect class="cls-12" x="347.48" y="299.3" width="5.37" height="5.3"/>
          <polygon class="cls-12" points="385.19 293.98 385.19 299.28 374.45 299.28 374.45 284.31 379.76 284.31 379.76 293.98 385.19 293.98"/>
          <rect class="cls-12" x="368.81" y="299.3" width="10.74" height="5.3"/>
          <rect class="cls-12" x="352.88" y="272.63" width="0" height="5.31"/>
        </g>
        <rect class="cls-12" x="395.54" y="272.68" width="0" height=".06"/>
        <rect class="cls-12" x="411.63" y="278.06" width="0" height="5.31"/>
        <rect class="cls-12" x="406.28" y="274.49" width=".04" height="3.47"/>
        <rect class="cls-12" x="411.7" y="283.24" width="5.3" height="5.37"/>
        <rect class="cls-12" x="406.3" y="274.49" width=".02" height="3.47"/>
        <polygon class="cls-12" points="395.55 262 395.55 272.68 395.54 272.68 395.54 272.74 390.24 272.74 390.24 278.05 384.94 278.05 384.94 272.62 363.46 272.62 363.46 267.31 379.62 267.31 379.62 262.03 384.99 262.03 384.99 267.31 390.24 267.31 390.24 262.01 390.3 262.01 390.3 262 395.55 262"/>
        <rect class="cls-12" x="390.24" y="262" width=".06" height="0"/>
        <rect class="cls-12" x="395.54" y="272.68" width="0" height=".06"/>
        <rect class="cls-12" x="331.16" y="261.89" width="0" height=".02"/>
        <rect class="cls-12" x="390.06" y="204.03" width="5.37" height="5.37"/>
        <path class="cls-12" d="M385,251.89v.02h0v-.02h0ZM379.63,251.89v.02h.02v-.02h-.02ZM331.22,209.34v.11h.01v-.11h-.01ZM315.41,222.62v.04h0v-.04h0ZM315.08,222.62v.04h0v-.04h0ZM314.81,222.68v.04h0v-.04h0ZM314.48,222.68v.04h0v-.04h0Z"/>
        <polygon class="cls-12" points="342.38 236.32 353.05 236.32 353.05 241.63 347.75 241.63 347.75 246.91 342.38 246.91 342.38 236.32"/>
        <path class="cls-12" d="M374.38,220.02v-5.23h5.34v-5.3h-5.32s-5.37-.01-5.37-.01l-.02,15.79h-15.91l.02-15.82-11.28-.02v-5.3l-10.62.02v5.19s0,0,0,0v.11h5.48v5.28l10.69.02-.02,10.51h-5.54v-5.3h-5.37s-5.22.01-5.22.01v5.29h-10.95v-5.26h-5.1v-5.31h-5.63v15.87h8.49v5.18h10.74v-5.18h7.69v-5.31h5.34l.03,5.31h5.58v6.22h5.63v-6.22h21.29s-.01,0-.01,0v5.5h-5.38v5.38h-5.38v5.31h16.07v5.13h.02v.02h5.35v-.02h0v-5.13h5.3v-16.15h.03v-5.29h5.37v-5.3h-21.31ZM314.49,222.73h0v-.04h0v.04ZM314.82,222.73h0v-.04h0v.04ZM315.08,222.66h0v-.04h0v.04ZM315.41,222.66h0v-.04h0v.04ZM379.72,225.32h5.24v5.26h-5.25v-5.26ZM385,241.5h-5.36v-5.29h5.36v5.29Z"/>
        <rect class="cls-12" x="395.42" y="209.37" width="10.82" height="5.31"/>
        <rect class="cls-12" x="400.88" y="193.61" width="5.3" height=".04"/>
        <rect class="cls-12" x="411.61" y="209.35" width=".01" height=".01"/>
        <polygon class="cls-12" points="395.48 177.48 395.48 182.85 390.05 182.85 390.05 204.01 384.96 204.01 384.96 209.4 379.66 209.4 379.66 198.66 384.74 198.66 384.74 193.67 374.08 193.67 374.08 177.48 379.38 177.48 379.38 182.85 384.73 182.85 384.74 177.48 395.48 177.48"/>
        <polygon class="cls-12" points="415.22 166.71 415.22 177.3 404.48 177.3 404.48 171.99 409.85 171.99 409.85 166.71 415.22 166.71"/>
        <rect class="cls-12" x="374.08" y="161.17" width="5.3" height="10.99"/>
        <polygon class="cls-12" points="363.52 161.2 363.52 177.46 352.97 177.46 352.97 167.82 358.21 167.82 358.21 161.2 363.52 161.2"/>
        <polygon class="cls-12" points="379.65 251.89 379.65 262.02 368.91 262.02 368.91 257.23 374.35 257.23 374.35 251.89 379.65 251.89"/>
        <polygon class="cls-12" points="309.51 252.03 309.51 241.44 320.25 241.44 320.25 246.75 314.88 246.75 314.88 252.03 309.51 252.03"/>
        <rect class="cls-12" x="390.3" y="246.63" width="5.3" height="9.64"/>
        <polygon class="cls-12" points="385 251.89 390.3 251.89 390.3 262 390.24 262 390.24 262.01 385 262.01 385 251.91 385 251.91 385 251.89"/>
        <rect class="cls-12" x="385" y="251.89" width="0" height=".02"/>
        <rect class="cls-12" x="390.24" y="262" width=".06" height="0"/>
        <polygon class="cls-12" points="411.62 204.1 411.62 209.35 411.61 209.35 411.61 209.36 400.88 209.36 400.88 193.65 406.19 193.65 406.19 204.06 406.31 204.06 406.31 204.1 411.62 204.1"/>
        <rect class="cls-12" x="416.73" y="266.53" width="5.3" height="5.37"/>
        <polygon class="cls-12" points="417.06 293.98 417.06 299.28 406.32 299.28 406.31 283.37 400.91 283.37 400.91 293.82 395.54 293.82 395.54 272.74 395.55 272.74 395.55 272.68 400.91 272.68 400.91 278.06 406.3 278.06 406.3 277.96 406.32 277.96 406.32 274.49 406.3 274.49 406.29 257.21 400.9 257.21 400.9 251.92 411.59 251.92 411.59 272.66 417.02 272.66 417.02 277.96 411.63 277.96 411.63 293.98 417.06 293.98"/>
        <polygon class="cls-12" points="442.24 277.95 442.24 283.6 436.87 283.58 436.87 277.95 442.24 277.95"/>
        <polygon class="cls-12" points="436.91 283.58 436.91 293.89 431.54 293.89 431.54 288.66 426.17 288.66 426.17 272.72 436.89 272.72 436.89 277.95 431.54 277.95 431.54 283.58 436.91 283.58"/>
        <rect class="cls-12" x="442.23" y="288.5" width="10.61" height="5.37"/>
        <polygon class="cls-12" points="436.97 293.87 442.28 293.87 442.28 304.61 426.53 304.61 426.53 299.3 436.97 299.3 436.97 293.87"/>
      </g>
      <g>
        <g>
          <polygon class="cls-13" points="492.84 490.02 492.08 471.53 508.55 471.59 506.35 490.07 492.84 490.02"/>
          <path class="cls-8" d="M529.78,501.96h-40.45c-.37-.01-.65-.37-.57-.75l2.35-13.26c.21-1.04,1.35-1.52,2.19-.94,4.97,3.45,10.15,2.05,12.68-.12.75-.64,1.85-.58,2.56.1,1.02.98,2.53,2.24,4.21,3,3.73,1.69,15.75,5.52,17.37,8.02.42.65.33,2.43.24,3.4-.03.32-.28.55-.58.55Z"/>
        </g>
        <g>
          <polygon class="cls-13" points="462.63 463.58 478.12 453.44 486.51 467.61 469.52 475.2 462.63 463.58"/>
          <path class="cls-8" d="M470.34,501.41l-20.74-34.73c-.19-.32-.03-.74.34-.87l13.59-4.78c1-.35,2,.38,1.93,1.4-.42,6.04,3.45,9.76,6.61,10.82.93.31,1.44,1.29,1.22,2.25-.31,1.37-.62,3.32-.41,5.15.46,4.07,3.35,16.35,2.03,19.02-.34.69-2.92,1.53-3.79,1.95-.29.14-.62.04-.77-.22Z"/>
        </g>
        <path class="cls-17" d="M539.38,406.9c-4.97,30.27-55.55,69.74-55.55,69.74-11.27-10.98-12.25-12.64-15.49-25.53l33.86-50.13-11.53-86.39,40.47.44s12,68.94,8.23,91.87Z"/>
        <path class="cls-22" d="M478.12,470.93c1.39,1.46,3.73,3.78,5.71,5.72l7.21-6.33-2.17-49.02-10.75,49.63Z"/>
        <path class="cls-17" d="M525.02,406.52c.34,16.88-10.34,72.68-10.34,72.68-9.01,3.29-17.38,3.75-29.77,0l4.66-70.98s-10.81-36.26-12.76-44.59c-6.21-26.53-.8-47.19-.8-47.19l35.02,1.03s13.72,75.95,13.98,89.05Z"/>
        <path class="cls-22" d="M480.13,325.59c3.88,2.42,8.23,4.18,12.74,5.45,7.05,1.97,14.49,2.73,21.08,2.9,10.23.25,18.43-.91,20.02-1.16-1.56-10.54-2.82-17.75-2.82-17.75l-13.09-.14-8.95,2.53-17.4,4.9-11.58,3.27Z"/>
        <path class="cls-18" d="M471.91,327.05s40.78,10.53,64.89-1.19l-7.66-76.11-17.95-12.67-19.52-.43-17.2,7.61-2.56,82.79Z"/>
        <path class="cls-18" d="M553.59,282.4s-9.7-24.77-19.4-36c-6.9-7.99-22.48-9.33-22.48-9.33l17.7,42.93s11.91-1.38,24.18,2.4Z"/>
        <path class="cls-8" d="M508.65,275.37h9.55c.76,0,1.4-.58,1.5-1.36l3.72-22.57c.12-.94-.58-1.78-1.5-1.78h-9.55c-.76,0-1.4.58-1.5,1.36l-3.72,22.57c-.12.94.58,1.78,1.5,1.78Z"/>
        <rect class="cls-8" x="531.16" y="265.57" width=".75" height="24.45" transform="translate(-29.42 65.61) rotate(-6.87)"/>
        <path class="cls-13" d="M554.61,297.4c-.04.17-.08.33-.12.49-1.55,5.85-6.63,9.24-11.77,8.14-3.14-.66-6.35-.1-9.32-5.19-6.51-11.15-9.9-28.22-9.9-28.22-3.06,1.1-4.29-1.02-5.97-1.26-1.69-.24-4.75,1.31-4.84-.15-.08-1.47,4.73-2.06,4.73-2.06,0,0-2.15-.48-3.93-.45-1.27.03-2.21-.11-2.12-.78.13-1.03,3.17-1.27,3.17-1.27l2.96-.68s-2.66-.75-3.9-.47c-1.24.28-3.18.31-3.3-.6-.11-.9,2.6-1.3,3.48-1.65.88-.36,3.26-.13,3.26-.13,0,0-1.59-.9-2.61-.92-.82-.02-2.68.39-2.86-.46-.18-.89,3.66-2.19,4.85-1.95,1.2.24,6.41,3.03,7.36,3.92.63.59,21.87,19.1,24.08,21.55,6.07,6.73,6.15,9.03,6.73,12.14Z"/>
        <path class="cls-18" d="M531.63,243.85c11.49,15.06,39.58,55.39,18.29,63.32-20.91,7.79-27.27-25.95-27.27-25.95,6.58-1.41,10.21-4.22,11.71-8.03l-2.73-29.34Z"/>
        <g>
          <path class="cls-13" d="M476.02,333.84l7.71,7.94c3.46-1.11,5.58-3.65,6.83-5.9l-6.35-9.11-8.19,7.06Z"/>
          <path class="cls-14" d="M479.83,342.87c1.44,0,2.8-.21,4.06-.62,2.94-.95,5.4-3.07,7.11-6.13,1.27-2.26,1.67-4.2,1.69-4.29l-.98-.2s-.39,1.88-1.58,4c-1.61,2.88-3.81,4.79-6.55,5.67-1.51.49-3.18.66-4.98.52l-.08,1c.44.04.88.06,1.31.06Z"/>
        </g>
        <path class="cls-18" d="M453.15,301.75c2.87,16.17,23.49,36.39,23.49,36.39,5.28-1.91,9.57-5.09,13.02-9.32,0,0-12.36-25.3-12.9-34.75-.76-13.38,9.16-43.03,12.87-53.59.8-2.24,1.3-3.62,1.37-3.81,0-.01,0-.02,0-.02,0,0-.08.01-.23.03h-.03c-.44.07-1.39.22-2.72.49-4.93,1.02-15.05,3.77-23.44,10.24-10.35,8-13.83,40.94-11.44,54.34Z"/>
        <path class="cls-14" d="M487.27,237.16s7.98,11.7,17.74,11.73c9.46.03,8.81-11.65,8.81-11.65l-13.71-1.69-8.8.97s-2.71.37-4.04.64Z"/>
        <g>
          <path class="cls-13" d="M511.77,239.69l-2.18-12.62-15.32-11.58-3.59,23.03s16.75,17.44,21.1,1.17Z"/>
          <path class="cls-8" d="M511.11,235.94c-9.36.1-12.85-7.77-12.85-7.77l11.73,1.24,1.12,6.53Z"/>
          <path class="cls-13" d="M521.72,209.46c-2,10.72-4.69,25.93-15.18,23.73-11.47-2.41-12.41-14.17-12.27-22.83.07-4.35,3.36-11.45,13.22-11,12.32.56,15.04,5.77,14.23,10.1Z"/>
          <path class="cls-8" d="M492.25,214.22c1.53,4.65,6.72,2.97,8,2,1.7-1.29,2.91-5,3.7-5.4,3.07-1.57,13.39,4.04,18.67,1.5,4.61-2.22,5.63-12.77-1.35-16.52-8.56-4.59-23.83,3.32-23.83,3.32,0,0-10.86-2.18-5.19,15.11Z"/>
          <path class="cls-13" d="M497.25,215.92c.3-2.29-1.91-4.22-3.94-3.29-.63.29-1.2.8-1.59,1.65-1.6,3.47.78,6.77,4.88,6.61l.65-4.97Z"/>
        </g>
        <path class="cls-8" d="M488.33,329.01c-.11-.18-10.78-18.37-11.03-31.67-.29-15.15,2.37-25.11,2.4-25.21l.72.2c-.03.1-2.66,9.97-2.37,25,.25,13.11,10.82,31.12,10.93,31.3l-.64.38Z"/>
        <rect class="cls-8" x="542.3" y="269.2" width=".75" height="18.13" transform="translate(-13.98 527.37) rotate(-51.26)"/>
        <path class="cls-8" d="M534.61,305.73c-.07-.08-7.03-7.84-11.51-24.6l.72-.19c4.43,16.56,11.27,24.21,11.34,24.29l-.55.51Z"/>
        <path class="cls-14" d="M522.19,437.48l-.74-.11c2.23-14.91,3.3-25.29,3.19-30.84-.14-7.04-4.24-32.57-7.65-52.75l-.04-.23,4.57-3.25.43.61-4.19,2.98c3.41,20.17,7.48,45.57,7.62,52.62.11,5.6-.96,16.02-3.2,30.97Z"/>
        <path class="cls-8" d="M478.68,281.81l-.69-.29c1.27-3.05,3.57-7.15,3.59-7.19l.65.37s-2.3,4.1-3.56,7.11Z"/>
        <path class="cls-8" d="M481.72,260.48c-.99-10.88-8.66-14.98-8.74-15.02l.34-.67c.08.04,8.11,4.31,9.14,15.62l-.75.07Z"/>
      </g>
      <path class="cls-8" d="M410.75,57.25h-59.11c-.58,0-1.06-.48-1.06-1.07s.47-1.07,1.06-1.07h59.11c.58,0,1.05.48,1.05,1.07s-.47,1.07-1.05,1.07Z"/>
      <g>
        <g>
          <polygon class="cls-13" points="106.75 490.02 105.99 471.53 122.46 471.59 120.26 490.07 106.75 490.02"/>
          <path class="cls-8" d="M143.69,501.96h-40.45c-.37-.01-.65-.37-.57-.75l2.35-13.26c.21-1.04,1.35-1.52,2.19-.94,4.97,3.45,10.15,2.05,12.68-.12.75-.64,1.85-.58,2.56.1,1.02.98,2.53,2.24,4.21,3,3.73,1.69,15.75,5.52,17.37,8.02.42.65.33,2.43.24,3.4-.03.32-.28.55-.58.55Z"/>
        </g>
        <path class="cls-13" d="M92.14,221.53l1.95,22.08s5.14,13.52,19.72,15.67c14.57,2.14,1.17-20.11,1.17-20.11l-4.22-9.02-2.63-5.6v-.03s-15.99-2.99-15.99-2.99Z"/>
        <path class="cls-8" d="M99.65,223.93c3.24,5.34,10,5.28,10.66,5.33l-2.18-4.72-8.48-.61Z"/>
        <path class="cls-13" d="M113.97,196.14s11.05,26.36,1.87,29.79c-8.14,3.03-16.66.43-18.81-1.16-2.16-1.59-5.72-9.72-5.72-9.72,0,0-2.29-10.82,1-15.69,3.2-4.75,16.98-11.33,21.66-3.21Z"/>
        <path class="cls-8" d="M92.73,227.18c2.4-.92,4.49-4.6,4.41-7.38,0,0,4.16-2.88,2.43-10.54-1.1-4.89,23.43-2.62,16.36-16.53-6.8-13.39-17.56-6.79-23.87-.4-3.06,3.1-5.07,6.91-5.07,6.91,0,0-4.62,1.78-5,6.87-.77,10.34,10.73,21.06,10.73,21.06Z"/>
        <path class="cls-13" d="M94.29,217.11c.4,1.87,2.23,3.06,4.1,2.66,1.87-.4,3.06-2.23,2.66-4.1-.4-1.87-2.23-3.06-4.1-2.66s-3.06,2.23-2.66,4.1Z"/>
        <path class="cls-13" d="M162.01,189.47c.25-1.06-.02-2.9.2-4.6.26-1.98,1.21-3.46,1.65-5.41.29-1.29.46-2.6.49-3.92.01-.49.55-.79.97-.53.74.47,1.21,1.22,1.49,2.29.18.72.4,1.71.54,2.4.07.34.48.47.73.23,1.12-1.03,3.7-3.17,6.35-3.64,2.45-.43,9.2-.95,9.32.6.05.72-.77,1.15-1.44,1.41-4.79,1.85-7.51,5.66-10.95,9.47-1.8,1.99-3.82,8.7-3.82,8.7l-7.79-.49s2.01-5.42,2.27-6.51Z"/>
        <path class="cls-6" d="M100.04,480.31c9.36,2.38,19.53,2.16,30.29,0,0,0,17.35-65.01,18.28-85.28,1-21.9-12.99-86.74-12.99-86.74h-41.45l3.43,34.48c.81,3.72,12.33,60,12.33,60l-9.89,77.53Z"/>
        <g>
          <polygon class="cls-13" points="13.22 439.48 29.06 429.92 36.93 444.39 19.67 451.35 13.22 439.48"/>
          <path class="cls-8" d="M19.51,477.61L.07,442.13c-.18-.33,0-.74.37-.86l13.76-4.31c1.01-.32,1.98.45,1.87,1.47-.64,6.02,3.08,9.88,6.2,11.06.92.35,1.4,1.34,1.14,2.29-.37,1.36-.74,3.3-.61,5.13.31,4.08,2.74,16.47,1.32,19.09-.37.68-2.98,1.46-3.86,1.85-.29.13-.62.02-.77-.25Z"/>
        </g>
        <path class="cls-1" d="M105.17,379.53c2.55,12.45,4.76,23.25,4.76,23.25,0,0,8.1-25.79,6.06-53.87,0,0-5.85,16.45-10.82,30.62Z"/>
        <path class="cls-13" d="M31.04,206.04c-.33-1.04-.2-2.89-.55-4.57-.41-1.95-1.47-3.36-2.05-5.27-.39-1.26-.65-2.56-.79-3.87-.05-.49-.61-.75-1.01-.46-.7.52-1.11,1.3-1.31,2.4-.13.73-.26,1.74-.35,2.43-.04.34-.44.5-.71.29-1.19-.94-3.93-2.88-6.61-3.15-2.48-.25-9.25-.24-9.25,1.31,0,.72.86,1.09,1.55,1.3,4.92,1.48,7.92,5.07,11.64,8.61,1.94,1.85,4.47,8.38,4.47,8.38l7.73-1.08s-2.41-5.25-2.75-6.32Z"/>
        <path class="cls-6" d="M19.23,428.6c2.38,9.04,6.94,17,13.64,23.89,0,0,58.01-30.68,69.45-48.7,12.89-20.31,17.36-94.64,17.36-94.64l-41.35.16-12.44,74.39-46.66,44.89Z"/>
        <path class="cls-1" d="M81.78,315.03c26.38,20.26,56.68,7.49,56.68,7.49l-2.83-14.22-53.85,6.73Z"/>
        <path class="cls-20" d="M142.54,312.14l-2.31-50.78s27.53-4.24,31.29-33.72c2.31-18.08.99-34.61.99-34.61-7.83,2.62-11.9,1.19-15.2-1.53,0,0-6.1,19.9-8.39,26.45-2.38,6.8-9.02,10.6-17.53,14.72,0,0-13.69-.71-17.49,3.99,0,0-2.64,12.64-20.09-1.02,0,0-12.94-3.57-20.77.85-3.31,1.87-18.79,2.08-23.24-3.7-6.73-8.76-14.76-25.36-14.76-25.36-3.4,4.05-8.13,5.84-15.1,3.83,0,0,4.43,25.71,13.35,42.35,9.17,17.09,33.31,14.04,33.31,14.04l6.33,45.38s46.46,18.86,69.61-.89Z"/>
        <path class="cls-14" d="M82.35,334.79c11.51,0,15.19-10,15.22-10.1l-.68-.24c-.04.1-3.64,9.91-15.08,9.61l-.02.72c.19,0,.38,0,.56,0Z"/>
        <path class="cls-14" d="M107.03,394.26l-.71-.24c3.78-10.98,7.05-27.77,9.72-49.91l.74.09c-2.68,22.19-5.96,39.04-9.76,50.07Z"/>
        <path class="cls-26" d="M171.92,224.1l-.12-1.15c.03.74.03,1.48,0,2.22.04-.36.08-.71.12-1.07Z"/>
        <path class="cls-4" d="M140.23,261.35s25.36-4.19,30.6-29.74c0,0-8.54,22.33-30.84,25.24l.24,4.49Z"/>
        <path class="cls-4" d="M66.6,267.64l6.33,45.39s20.63,8.37,41.25,8.11c-6.19-1.26-11.23-3.16-13.93-4.27-5.68-2.34-10.71-6.14-14.87-10.64-11.86-12.81-18.78-38.59-18.78-38.59Z"/>
        <path class="cls-14" d="M112.93,314.83c16.06,0,25.86-8.81,25.98-8.91l-.51-.55c-.13.12-13.41,12.03-34.39,7.81l-.15.73c3.2.64,6.23.92,9.06.92Z"/>
        <g>
          <rect class="cls-8" x="10.41" y="441.14" width=".75" height="25.79" transform="translate(-220.54 63.2) rotate(-29.26)"/>
          <path class="cls-8" d="M21.82,458.78c-1.39,0-2.67-1.15-2.74-1.21l.5-.55s1.8,1.6,3.07.77l.41.63c-.4.27-.83.37-1.25.37Z"/>
          <path class="cls-8" d="M22.32,462.12c-1.4,0-2.79-1-2.87-1.06l.44-.61s1.97,1.42,3.23.72l.37.65c-.37.21-.77.29-1.17.29Z"/>
        </g>
        <g>
          <rect class="cls-8" x="105.67" y="498.5" width="25.79" height=".75"/>
          <path class="cls-8" d="M125.71,493.36l-.24-.71s2.28-.78,2.17-2.3l.75-.05c.15,2.09-2.57,3.02-2.68,3.06Z"/>
          <path class="cls-8" d="M128.93,494.75l-.31-.68s2.21-1.03,2.21-2.47h.75c0,1.92-2.54,3.1-2.64,3.15Z"/>
        </g>
        <path class="cls-8" d="M87.37,200.29l-.74-.09c.05-.41,1.32-10.06,8.11-14.21,3.71-2.27,8.33-2.42,13.75-.45l-.26.71c-5.19-1.89-9.6-1.76-13.1.38-6.47,3.96-7.75,13.56-7.76,13.66Z"/>
      </g>
      <g>
        <path class="cls-3" d="M608.87,279.46c4.17,11.54,13.14,17.02,13.14,17.02l7.15-9.78-9.66-19.01-5.69-3.31c-2.35,3.13-3.36,5.16-5.9,12.13,0,0,.7,2.22.96,2.95Z"/>
        <g>
          <path class="cls-13" d="M728.31,475.92l-8.6-12.98-12.49,9.1,10.62,11.25s2.91,2.35,7.38.57c4.42-1.76,3.09-7.94,3.09-7.94Z"/>
          <path class="cls-8" d="M700.92,502.29l19.26.02,16.97-17.78c.74-.77.73-2-.03-2.76l-7.35-7.41c-.55-.56-1.52-.31-1.71.45-1.76,6.99-9.11,6.79-12.05,6.42-.71-.09-1.37.35-1.57,1.04-.71,2.52-2.35,8.11-3.41,9.53-1.93,2.59-4.53,3.97-6.83,5.16-4.63,2.4-3.29,5.32-3.29,5.32Z"/>
        </g>
        <g>
          <path class="cls-13" d="M585.29,254.98c-3.25-.53-4.71-2.83-6.54-5.8-.82-1.33-.58-2.51.59-2.57-.28-1.28.27-1.85,1.51-1.69-.04-1.23.58-1.53,1.44-1.39.1-2.94,5.83,1.95,6.49,2.69,1.6,1.83,1.56,5.16,1.56,5.16l17.57,25.11c2.54-6.97,3.55-8.99,5.89-12.13l5.69,3.31,9.89,19.47s-5.02,11.23-15.26,14.06c-3.67,1.02-16.82,2.38-21.48-12.38-4.39-13.88-7.35-33.86-7.35-33.86Z"/>
          <g>
            <path class="cls-14" d="M576.47,220.43c-16.45,21.1-33.1,8.2-16.77-13,16.45-21.1,33.1-8.2,16.77,13Z"/>
            <polygon class="cls-8" points="574.14 213.56 579.79 216.46 573.69 225.78 568.63 220.9 574.14 213.56"/>
            <path class="cls-17" d="M573.05,218.65c-3.58,4.92-6.75,1.87-3.29-2.74,3.58-4.92,6.75-1.87,3.29,2.74Z"/>
            <path class="cls-8" d="M591.49,238.93l-6.97,14.9c-.97,2-3.72-1.55-4.68-1.96-2.17-.23,6.96-17.42,6.86-18.24l4.79,5.3Z"/>
            <path class="cls-17" d="M598.78,239.16c-1.7,2.2-3.91,3.45-5.37,3.16l-36.56-11.32c12.61,3.09,31.08-19.89,25.11-32.19l18.58,34.47c.56,1.36-.1,3.74-1.76,5.88Z"/>
            <path class="cls-8" d="M598.78,239.16c-3.2,4.62-6.59,2.87-10.38,1.57,3.98-.21,10.19-8.18,9.52-12.12,2.01,3.43,4.48,6.41.86,10.55Z"/>
            <path class="cls-17" d="M559.07,206.95c17.03-22.04,35.11-8.02,18.02,13.97-3.42,4.41-7.54,7.88-11.6,9.76-17.4,7.41-15.01-14.74-6.42-23.72ZM556.05,229.47c12.83,6.8,33.1-23.56,24.07-31.06-11.57-6.09-33.02,20.26-24.07,31.06Z"/>
          </g>
          <path class="cls-21" d="M623.54,296.48l5.62-9.78-9.66-19.01-5.69-3.31c-2.35,3.13-3.36,5.16-5.9,12.13,3,6.82,7.47,13.13,15.63,19.97Z"/>
          <g>
            <path class="cls-13" d="M578.39,246.84c-.4.41-.34,1.07.12,1.4.82.6,1.91,1.1,2.37.89.8-.38-.32-1.48-1.16-2.31-.37-.36-.96-.35-1.32.02h0Z"/>
            <path class="cls-13" d="M579.79,246.07c-.2.39-.11.87.23,1.15.84.71,2.28,1.6,2.95,1.08.43-.33-.66-1.57-1.59-2.54-.45-.47-1.29-.28-1.59.3h0Z"/>
            <path class="cls-13" d="M581.55,244.31c-.39.34-.44.92-.11,1.32.71.85,1.89,1.83,3.07,1.64,1.01-.16-.57-1.9-1.56-2.97-.34-.37-.92-.41-1.3-.08l-.1.09Z"/>
            <path class="cls-13" d="M582.42,242.56c-.47.45-.44,1.2.06,1.62.91.76,2.17,1.49,2.86,1.3.74-.2-.42-1.7-1.31-2.82-.4-.5-1.15-.55-1.61-.11h0Z"/>
            <path class="cls-13" d="M590.02,249.26c-.6-3.05-2.71-6.64-3.41-6.08-.71.56.78,3.16.45,4.15-.44,1.3-.79,2.51.44,4.97l2.52-3.04Z"/>
          </g>
          <path class="cls-9" d="M608.47,279.53c-.28-1.48-1.61-2.62-1.62-2.64l.53-.62c.06.05,1.56,1.34,1.9,3.11l-.8.15Z"/>
        </g>
        <g>
          <polygon class="cls-13" points="639.46 492.8 638.77 473.89 623.82 473.89 626.55 492.8 639.46 492.8"/>
          <path class="cls-8" d="M603.18,502.49h39.57c.36-.01.64-.35.56-.7l-2.3-12.4c-.2-.97-1.32-1.42-2.15-.87-4.86,3.23-9.93,1.92-12.4-.11-.73-.6-1.81-.54-2.5.1-1,.91-2.48,2.09-4.12,2.8-3.65,1.58-15.41,5.16-16.99,7.5-.41.61-.32,2.27-.24,3.18.03.3.27.52.57.52Z"/>
        </g>
        <path class="cls-2" d="M646.11,478.18c-8.76,2.16-19.5,2.66-28.22.41,0,0-9.31-59.76-8.14-84.06,1.05-21.89,14.09-84.24,14.09-84.24l34.98.48-14.6,93.71,1.89,73.7Z"/>
        <path class="cls-8" d="M686.58,261.95c5.54-2.21,6.68-9.76,5.06-11.82-1.32-1.68-3.9-2.39-4.46-4.45-.55-2.02,1.23-3.95,1.27-6.04.05-2.48-2.28-4.29-4.45-5.49-2.17-1.2-4.65-2.5-5.35-4.88-.73-2.48.83-5.17.23-7.69-.95-3.95-6.33-5.02-8.4-8.52-.94-1.59-.5-4.33-1.55-5.84-2.32-3.34-5.23-2.5-7.34-6.32-3.52-6.39-24.36-9.67-30.02,7.92-.69,2.15-3.37,3.09-4.45,5.08-2.16,4,1.32,9.39-.92,13.34-.85,1.49-2.46,2.64-2.61,4.35-.07.8.2,1.58.26,2.38.19,2.77-2.13,4.98-3.45,7.42-1.78,3.28-1.75,7.44-.04,10.75,1.71,3.31,5.03,5.72,8.69,6.45,5.87,1.18,11.79-1.74,17.78-1.77,3.8-.02,7.53,1.13,11.33,1.2,4.77.08,9.62-1.53,14.23-.32,4.8,1.27,11.74,5.2,14.18,4.23Z"/>
        <polygon class="cls-7" points="639.97 359.46 644.22 404.48 648.08 379.74 639.97 359.46"/>
        <path class="cls-2" d="M650.01,405.3c-6.33-24.86-19.13-95.58-19.13-95.58l46.82-3.08,9.32,92.78,38.26,58.27c-5.38,6.62-11.1,13.1-21.25,17.8,0,0-48.96-50.31-54.02-70.2Z"/>
        <path class="cls-7" d="M626.99,324.56c21.62,20.43,53.66,11.4,53.66,11.4l-1.49-14.82-22.03.51-23.96.55-6.18,2.36Z"/>
        <path class="cls-14" d="M685.28,328.29c-39.88,14.42-69.67-10.37-69.67-10.37l11.14-54.95,14.04-18.98s7.11,6.91,16.29-1.16l18.56,7.35,9.64,78.1Z"/>
        <path class="cls-15" d="M691.89,286.01c-7.97-12.84-20.06-21.02-20.18-21.1l.52-.77c.12.08,12.37,8.36,20.46,21.38l-.79.49Z"/>
        <path class="cls-13" d="M653.48,333.07c.17,1,3.23.1,3.23.91,0,.5-5.96,2.35-5.31,3.38.42.68,3.88-.94,3.97-.5.08.4-4.59,1.5-4.01,2.53.6,1.08,5.03-1.87,5.28-1.36.12.26-5.3,2.44-4.81,3.27.66,1.11,4.78-1.85,5.12-1.36.17.24-1.47,1.02-2.39,1.61-.51.33-.33.79.08.76,4.24-.35,9.38-5.72,10.05-5.99,43.7-17.51,30.25-61.52,30.25-61.52l-23.73,2.28s11.34,34.36-9.13,52.08c-.68.59-2.57,2.24-3.44,2.42-.81.17-5.33.53-5.16,1.48Z"/>
        <path class="cls-14" d="M607.29,269.41s7.54-15.22,18.89-21.79c5.63-3.26,20.71-4.89,20.71-4.89,0,0,22.53-2.74,33.42,5.75,18.54,14.44,20.13,32.15,20.13,32.15,0,0-12.26,11.43-28.08,11.43l-49.97-1.12c-10.14-7.74-15.1-21.53-15.1-21.53Z"/>
        <path class="cls-21" d="M674.32,296.43c9.82-.58,18.07-5.36,22.53-8.53-.05-1.51-.16-2.92-.29-4.22-4.56,3.19-12.77,7.83-22.49,8.33l.25,4.42Z"/>
        <g>
          <path class="cls-13" d="M657.29,243.72c-1.32-6.22-1.31-12.97-.02-20.24l-13.04,6.14-3.56,14.12s5.87,8.08,16.62-.02Z"/>
          <path class="cls-8" d="M641.94,238.55c8.63-1.54,11.26-7.94,11.26-7.94l-9.65,1.54-1.61,6.4Z"/>
        </g>
        <path class="cls-13" d="M637.75,207.88c-3.02,6.62-5.62,27.48,3.68,28.39,9.72.95,15.29-10.34,15.29-10.34,0,0,4.6,2.16,6.11-2.04,1.36-3.79-3.06-5.96-4.79-4.46,0,0,2.84-9.35-2.24-13.28-5.08-3.94-14.77-5.44-18.04,1.73Z"/>
        <path class="cls-8" d="M658.72,219.01s-12.7-2.63-16.22-12.27c0,0-3.82,6.42-8.13,7.95,0,0-1.79-14.39,10.89-15.98,12.68-1.58,17.9,10.98,16.58,15.35-.84,2.8-3.12,4.95-3.12,4.95Z"/>
        <path class="cls-8" d="M671.8,294.34c-.57-14.46-5.43-26.59-5.48-26.72l.7-.28c.05.12,4.96,12.37,5.53,26.97l-.75.03Z"/>
        <rect class="cls-8" x="611.27" y="279.24" width="23.68" height=".75" transform="translate(211 824.24) rotate(-77.05)"/>
        <path class="cls-14" d="M646.96,393.97c-2.25-10.19-5.09-24.12-8.44-41.4l.74-.14c3.34,17.28,6.18,31.21,8.43,41.38l-.73.16Z"/>
      </g>
      <rect class="cls-8" x="716.61" y="490.24" width="21.58" height=".75" transform="translate(-130.32 675.39) rotate(-46.16)"/>
      <rect class="cls-8" x="618.5" y="499.07" width="21" height=".75"/>
      <rect class="cls-8" x="14.61" y="501.97" width="748.59" height="2"/>
      <path class="cls-8" d="M615.9,497.1c-1.78-.55-3.09-2.76-3.15-2.85l.65-.38s1.22,2.05,2.72,2.51l-.22.72Z"/>
      <path class="cls-8" d="M619.14,495.46c-2.05-.34-2.69-2.13-2.74-3.03l.75-.04c0,.08.15,2.01,2.11,2.33l-.12.74Z"/>
      <path class="cls-8" d="M713.36,495.13c-2.19,0-3.72-1.5-3.79-1.57l.53-.53s1.69,1.65,3.89,1.3l.12.74c-.26.04-.51.06-.75.06Z"/>
      <path class="cls-8" d="M715.03,492.33c-2.17,0-3.36-1.27-3.42-1.33l.55-.51c.05.06,1.33,1.38,3.63,1.03l.11.74c-.31.05-.6.07-.87.07Z"/>
      <g>
        <rect class="cls-8" x="491.8" y="498.79" width="25.79" height=".75"/>
        <path class="cls-8" d="M511.83,493.65l-.24-.71s2.28-.78,2.17-2.3l.75-.05c.15,2.09-2.56,3.02-2.68,3.06Z"/>
        <path class="cls-8" d="M515.06,495.04l-.31-.68s2.21-1.03,2.21-2.47h.75c0,1.92-2.54,3.1-2.65,3.15Z"/>
      </g>
      <g>
        <rect class="cls-8" x="460.47" y="465.9" width=".75" height="25.79" transform="translate(-180.89 306.2) rotate(-31.04)"/>
        <path class="cls-8" d="M471.95,483.19c-1.36,0-2.62-1.07-2.69-1.12l.49-.57s1.85,1.54,3.09.67l.43.61c-.42.3-.87.41-1.31.41Z"/>
        <path class="cls-8" d="M472.54,486.51c-1.37,0-2.73-.92-2.81-.97l.42-.62s2.02,1.36,3.25.62l.39.64c-.39.24-.83.33-1.26.33Z"/>
      </g>
      <text class="cls-5" transform="translate(344.19 383.52)"><tspan x="0" y="0">S</tspan><tspan class="cls-24" x="10.21" y="0">C</tspan><tspan x="20.85" y="0">AN ME</tspan></text>
    </g>
  </g>
</svg>